<svg xmlns="http://www.w3.org/2000/svg" width="209.145" height="63.415" viewBox="0 0 209.145 63.415">
  <g id="Logo" transform="translate(-1646 47.91)">
    <g id="Group_1" data-name="Group 1" transform="translate(1646 -47.91)">
      <g id="Group_3" data-name="Group 3" transform="translate(0 0)">
        <g id="Group_1-2" data-name="Group 1">
          <path id="Path_1" data-name="Path 1" d="M572.364,149.478a10.221,10.221,0,0,0-9.279,14.507l5.848,12.662H553.951a21.656,21.656,0,0,1-8.518,9.522l24.958.035a9.892,9.892,0,0,0,9.006-14.039l-6.1-13.2h14.1a9.612,9.612,0,0,0,7.949-4.207l3.591-5.281Z" transform="translate(-396.179 -149.334)" fill="#fff"/>
          <path id="Path_2" data-name="Path 2" d="M139.254,149.381a25.148,25.148,0,0,0-17.633,7L90.292,186.192h14.637l8.506-8.269h13.022l-3.979,8.269H133.75l17.165-36.81Zm-8.243,19.076h-7.84l7.744-7.529a7.162,7.162,0,0,1,4.683-2Z" transform="translate(-90.292 -149.269)" fill="#fff"/>
          <path id="Path_3" data-name="Path 3" d="M341.835,174.68l11.856-25.529H341.94l-9.395,20.114c-2.139,4.355-4.354,6.527-8.632,6.527-3.388,0-5.707-2.669-3.842-6.527l8.8-20.114H317.5l-5.669,11.828a18.152,18.152,0,0,0-3.5-5.914,15.013,15.013,0,0,0,4.529-6.027H295.031a18.308,18.308,0,0,0-12.75,5.2c-.368.355-.716.727-1.051,1.108a10.124,10.124,0,0,0-9.806-6.161l-19.823-.032-17.165,36.81h7.387a6.1,6.1,0,0,0,5.526-3.521l2.214-4.749h2.675l12.452,14.988q-.081.825-.082,1.658a18.085,18.085,0,1,0,33.554-9.413,17.949,17.949,0,0,0,9.457-5.056,18.663,18.663,0,0,0,1.306-1.47c2.094,4.619,6.783,8.061,13.2,8.061C331.89,186.46,337.751,183.043,341.835,174.68Zm-77.494-6.8H254.209l4.405-9.433h9.573c2.716,0,4.015,2.53,2.806,5.185A6.709,6.709,0,0,1,264.341,167.88Zm18.38,34.808a8.453,8.453,0,0,1-8.349-8.349,7.908,7.908,0,0,1,1.179-4.119l-6.376-7.728-.028.033-4.152-5.082a19,19,0,0,0,12.245-6.035,17.848,17.848,0,0,0,1.591,4.155,21.765,21.765,0,0,1-6.379,4.09l6.327,7.466a8.474,8.474,0,0,1,4.138-1.1,8.211,8.211,0,0,1,8.094,8.32A8.4,8.4,0,0,1,282.721,202.688Zm12.114-27.215a8.453,8.453,0,0,1-8.349-8.349,8.6,8.6,0,0,1,8.545-8.32,8.211,8.211,0,0,1,8.094,8.32A8.4,8.4,0,0,1,294.835,175.473Z" transform="translate(-187.166 -149.038)" fill="#fff"/>
        </g>
        <g id="Group_2" data-name="Group 2" transform="translate(119.354 46.919)">
          <path id="Path_4" data-name="Path 4" d="M454.253,296.141a4.074,4.074,0,0,1,4-4.027,2.786,2.786,0,0,1,2.581,1.418l-.964.652a1.923,1.923,0,0,0-1.749-1,2.864,2.864,0,0,0-2.656,2.912,1.707,1.707,0,0,0,1.8,1.8,2.506,2.506,0,0,0,1.758-.757l.766.775a3.458,3.458,0,0,1-2.543,1.049A2.766,2.766,0,0,1,454.253,296.141Z" transform="translate(-454.253 -292.114)" fill="#fff"/>
          <path id="Path_5" data-name="Path 5" d="M476.449,296.056a3.964,3.964,0,0,1,3.923-3.942,2.836,2.836,0,0,1,2.977,2.9,3.966,3.966,0,0,1-3.932,3.942A2.827,2.827,0,0,1,476.449,296.056Zm5.691-.974a1.786,1.786,0,0,0-1.881-1.9,2.773,2.773,0,0,0-2.6,2.808,1.781,1.781,0,0,0,1.881,1.9A2.773,2.773,0,0,0,482.14,295.082Z" transform="translate(-469.17 -292.114)" fill="#fff"/>
          <path id="Path_6" data-name="Path 6" d="M502.41,292.46h1.078l2.24,4.68,1.267-4.68h1.144l-1.777,6.617h-.974l-2.316-4.812-1.285,4.812h-1.153Z" transform="translate(-485.424 -292.347)" fill="#fff"/>
          <path id="Path_7" data-name="Path 7" d="M529.721,293.538h-2.108l.293-1.078h5.369l-.293,1.078h-2.1l-1.494,5.539h-1.163Z" transform="translate(-503.556 -292.347)" fill="#fff"/>
          <path id="Path_8" data-name="Path 8" d="M546.339,292.46h2.4a2.167,2.167,0,0,1,2.127.964,1.818,1.818,0,0,1,.18,1.342,2.309,2.309,0,0,1-2.08,1.891l1.229,2.42h-1.333l-1.135-2.307h-1.38l-.614,2.307h-1.172Zm1.786,3.28c.936,0,1.635-.34,1.749-.973a.834.834,0,0,0-.009-.69c-.123-.35-.52-.557-1.191-.557h-1.447l-.6,2.221Z" transform="translate(-514.947 -292.347)" fill="#fff"/>
          <path id="Path_9" data-name="Path 9" d="M568.74,296.056a3.964,3.964,0,0,1,3.923-3.942,2.836,2.836,0,0,1,2.978,2.9,3.966,3.966,0,0,1-3.933,3.942A2.828,2.828,0,0,1,568.74,296.056Zm5.691-.974a1.786,1.786,0,0,0-1.881-1.9,2.773,2.773,0,0,0-2.6,2.808,1.781,1.781,0,0,0,1.881,1.9A2.773,2.773,0,0,0,574.431,295.082Z" transform="translate(-531.196 -292.114)" fill="#fff"/>
          <path id="Path_10" data-name="Path 10" d="M594.7,292.46h1.172l-1.494,5.558h3.479l-.293,1.059h-4.641Z" transform="translate(-547.45 -292.347)" fill="#fff"/>
          <path id="Path_11" data-name="Path 11" d="M611.511,297.74l.879-.728a2.479,2.479,0,0,0,1.995.936c.737,0,1.276-.368,1.276-.917,0-.4-.274-.634-1.219-1-1.012-.407-1.7-.86-1.7-1.777a2.273,2.273,0,0,1,2.543-2.079,3.137,3.137,0,0,1,2.43.993l-.813.794a2.3,2.3,0,0,0-1.7-.756c-.775,0-1.229.425-1.229.869,0,.426.331.634,1.285,1.012,1.012.4,1.645.861,1.645,1.777a2.316,2.316,0,0,1-2.581,2.117A3.332,3.332,0,0,1,611.511,297.74Z" transform="translate(-559.941 -292.153)" fill="#fff"/>
        </g>
      </g>
      <g id="Group_4" data-name="Group 4" transform="translate(203.284 0.07)">
        <path id="Path_12" data-name="Path 12" d="M713.115,155.114a2.93,2.93,0,1,1,2.939-2.939A2.91,2.91,0,0,1,713.115,155.114Zm.017-5.57a2.639,2.639,0,1,0,2.615,2.631A2.614,2.614,0,0,0,713.132,149.544Zm.647,2.931.826,1.158h-.7l-.745-1.061h-.639v1.061h-.583v-3.068h1.368c.713,0,1.182.365,1.182.98A.916.916,0,0,1,713.779,152.475Zm-.494-1.384h-.761v.971h.761c.381,0,.607-.186.607-.486S713.666,151.091,713.285,151.091Z" transform="translate(-710.193 -149.253)" fill="#fff"/>
      </g>
    </g>
  </g>
</svg>
